<svg class="diagram-root" style="background: #f5f6f6" xmlns="http://www.w3.org/2000/svg" xmlns:xlink="http://www.w3.org/1999/xlink"><style>.diagram-root { font-family: "Helvetica Neue", sans-serif; font-size: 12px; } .t { overflow: visible; } .t-bg { y: 40; fill: #fff;   } .th { fill: #005aa0;   } .tht { fill: #fff; font-size: 14px;  } .tf { fill: #323c46; overflow: visible; } .tf.pk { fill: #005aa0; font-weight: bold; } .tf.fk { font-weight: bold; } .ty { fill: #adb1b5; font-weight: normal; text-anchor: end; } .r { fill: transparent; stroke: #c3c3c3; stroke-width: 1; } .l { stroke: 1; } .i { fill: #c2c7ce; stroke: #c2c7ce; } .i.ix { fill: #afb3b6; stroke: #000; } .fa { fill: transparent; overflow: visible; } .fa .bg.hover { fill: #f7f7f7; } .c { cy: 12; r: 4; stroke: #d2d2dc; fill: #d2d2dc; } .hr { fill: transparent; stroke: #323c46; stroke-opacity: 0.035; stroke-width: 13; } .dc { stroke: #fa5a3c; fill: #fa5a3c; } .x { stroke: white; stroke-width: 1; } .hl .th { fill: #1b9bff; } .hl .tht {  } .fhl .bg { fill: #e7f4ff; } .fhls .bg {  } .r.hl { stroke: #1b9bff; } .dim { opacity: 0.25; }</style><g class="drawing-wrapper" transform="translate(-91, 30) scale(1,1)"><g class="rs"><path d="M 663 441 m -1, 0 a 1,1 0 1,0 2,0 a 1,1 0 1,0 -2,0 M 663 441 m -0.5, 0 a 0.5,0.5 0 1,0 1,0 a 0.5,0.5 0 1,0 -1,0  M663 441 L663 441 651 441 M657 447 L657 447 657 435 M651 441 Q 628.85 441, 606.69 388 T 562.38 335 M 550.38 335 m -1, 0 a 1,1 0 1,0 2,0 a 1,1 0 1,0 -2,0 M 550.38 335 m -0.5, 0 a 0.5,0.5 0 1,0 1,0 a 0.5,0.5 0 1,0 -1,0  M550.38 335 L550.38 335 562.38 335 M556.38 341 L556.38 341 556.38 329" id="h221257298" class="r"></path><path d="M 387 360 m -1, 0 a 1,1 0 1,0 2,0 a 1,1 0 1,0 -2,0 M 387 360 m -0.5, 0 a 0.5,0.5 0 1,0 1,0 a 0.5,0.5 0 1,0 -1,0  M387 360 L387 360 375 360 M 387 366 m -1, 0 a 1,1 0 1,0 2,0 a 1,1 0 1,0 -2,0 M 387 366 m -0.5, 0 a 0.5,0.5 0 1,0 1,0 a 0.5,0.5 0 1,0 -1,0  M387 366 L387 366 380 360 387 354 M 387 354 m -1, 0 a 1,1 0 1,0 2,0 a 1,1 0 1,0 -2,0 M 387 354 m -0.5, 0 a 0.5,0.5 0 1,0 1,0 a 0.5,0.5 0 1,0 -1,0  M375 360 Q 347.18 360, 319.35 398.5 T 263.7 437 M 251.7 437 m -1, 0 a 1,1 0 1,0 2,0 a 1,1 0 1,0 -2,0 M 251.7 437 m -0.5, 0 a 0.5,0.5 0 1,0 1,0 a 0.5,0.5 0 1,0 -1,0  M251.7 437 L251.7 437 263.7 437 M257.7 443 L257.7 443 257.7 431" id="h133153459" class="r"></path><path d="M 190 186 m -1, 0 a 1,1 0 1,0 2,0 a 1,1 0 1,0 -2,0 M 190 186 m -0.5, 0 a 0.5,0.5 0 1,0 1,0 a 0.5,0.5 0 1,0 -1,0  M190 186 L190 186 178 186 M 190 192 m -1, 0 a 1,1 0 1,0 2,0 a 1,1 0 1,0 -2,0 M 190 192 m -0.5, 0 a 0.5,0.5 0 1,0 1,0 a 0.5,0.5 0 1,0 -1,0  M190 192 L190 192 183 186 190 180 M 190 180 m -1, 0 a 1,1 0 1,0 2,0 a 1,1 0 1,0 -2,0 M 190 180 m -0.5, 0 a 0.5,0.5 0 1,0 1,0 a 0.5,0.5 0 1,0 -1,0  M178 186 C 128 186, 17 57, 363 57 M 375 57 m -1, 0 a 1,1 0 1,0 2,0 a 1,1 0 1,0 -2,0 M 375 57 m -0.5, 0 a 0.5,0.5 0 1,0 1,0 a 0.5,0.5 0 1,0 -1,0  M375 57 L375 57 363 57 M369 63 L369 63 369 51" id="h3936989733" class="r"></path><path d="M 190 211 m -1, 0 a 1,1 0 1,0 2,0 a 1,1 0 1,0 -2,0 M 190 211 m -0.5, 0 a 0.5,0.5 0 1,0 1,0 a 0.5,0.5 0 1,0 -1,0  M190 211 L190 211 178 211 M 190 217 m -1, 0 a 1,1 0 1,0 2,0 a 1,1 0 1,0 -2,0 M 190 217 m -0.5, 0 a 0.5,0.5 0 1,0 1,0 a 0.5,0.5 0 1,0 -1,0  M190 217 L190 217 183 211 190 205 M 190 205 m -1, 0 a 1,1 0 1,0 2,0 a 1,1 0 1,0 -2,0 M 190 205 m -0.5, 0 a 0.5,0.5 0 1,0 1,0 a 0.5,0.5 0 1,0 -1,0  M178 211 C 128 211, 9.799999999999955 335, 375 335 M 387 335 m -1, 0 a 1,1 0 1,0 2,0 a 1,1 0 1,0 -2,0 M 387 335 m -0.5, 0 a 0.5,0.5 0 1,0 1,0 a 0.5,0.5 0 1,0 -1,0  M387 335 L387 335 375 335 M381 341 L381 341 381 329" id="h634767023" class="r"></path><path d="M 695.39 189 m -1, 0 a 1,1 0 1,0 2,0 a 1,1 0 1,0 -2,0 M 695.39 189 m -0.5, 0 a 0.5,0.5 0 1,0 1,0 a 0.5,0.5 0 1,0 -1,0  M695.39 189 L695.39 189 707.39 189 M 695.39 195 m -1, 0 a 1,1 0 1,0 2,0 a 1,1 0 1,0 -2,0 M 695.39 195 m -0.5, 0 a 0.5,0.5 0 1,0 1,0 a 0.5,0.5 0 1,0 -1,0  M695.39 195 L695.39 195 702.39 189 695.39 183 M 695.39 183 m -1, 0 a 1,1 0 1,0 2,0 a 1,1 0 1,0 -2,0 M 695.39 183 m -0.5, 0 a 0.5,0.5 0 1,0 1,0 a 0.5,0.5 0 1,0 -1,0  M707.39 189 C 757.39 189, 844.396 335, 562.38 335 M 550.38 335 m -1, 0 a 1,1 0 1,0 2,0 a 1,1 0 1,0 -2,0 M 550.38 335 m -0.5, 0 a 0.5,0.5 0 1,0 1,0 a 0.5,0.5 0 1,0 -1,0  M550.38 335 L550.38 335 562.38 335 M556.38 341 L556.38 341 556.38 329" id="h106845284" class="r"></path><path d="M 695.39 214 m -1, 0 a 1,1 0 1,0 2,0 a 1,1 0 1,0 -2,0 M 695.39 214 m -0.5, 0 a 0.5,0.5 0 1,0 1,0 a 0.5,0.5 0 1,0 -1,0  M695.39 214 L695.39 214 707.39 214 M 695.39 220 m -1, 0 a 1,1 0 1,0 2,0 a 1,1 0 1,0 -2,0 M 695.39 220 m -0.5, 0 a 0.5,0.5 0 1,0 1,0 a 0.5,0.5 0 1,0 -1,0  M695.39 220 L695.39 220 702.39 214 695.39 208 M 695.39 208 m -1, 0 a 1,1 0 1,0 2,0 a 1,1 0 1,0 -2,0 M 695.39 208 m -0.5, 0 a 0.5,0.5 0 1,0 1,0 a 0.5,0.5 0 1,0 -1,0  M707.39 214 C 757.39 214, 849.184 57, 554.4 57 M 542.4 57 m -1, 0 a 1,1 0 1,0 2,0 a 1,1 0 1,0 -2,0 M 542.4 57 m -0.5, 0 a 0.5,0.5 0 1,0 1,0 a 0.5,0.5 0 1,0 -1,0  M542.4 57 L542.4 57 554.4 57 M548.4 63 L548.4 63 548.4 51" id="h730141189" class="r"></path></g><g class="hrs"></g><g class="ts"><svg width="138.7" height="100" x="113" y="380" id="h3517680912" class="t"><rect height="40" width="138.7" class="th"></rect><text x="13" y="25" class="tht">Titles</text><rect height="60" width="138.7" class="t-bg"></rect><text x="13" y="61" class="tf pk">title_id<tspan x="125.69999999999999" class="ty">char(5)</tspan></text><path d="M7,14A2,2 0 0,1 5,12A2,2 0 0,1 7,10A2,2 0 0,1 9,12A2,2 0 0,1 7,14M12.65,10C11.83,7.67 9.61,6 7, 6A6, 6 0 0, 0 1, 12A6, 6 0 0, 0 7, 18C9.61, 18 11.83, 16.33 12.65, 14H17V18H21V14H23V10H12.65Z" class="i pk" transform="translate(67.69023437499999, 48) scale(0.65)"></path><text x="13" y="86" class="tf">title<tspan x="125.69999999999999" class="ty">varchar(30)</tspan></text></svg><svg width="167.4" height="100" x="375" y="0" id="h3708248841" class="t"><rect height="40" width="167.4" class="th"></rect><text x="13" y="25" class="tht">Departments</text><rect height="60" width="167.4" class="t-bg"></rect><text x="13" y="61" class="tf pk">dept_no<tspan x="154.4" class="ty">char(4)</tspan></text><path d="M7,14A2,2 0 0,1 5,12A2,2 0 0,1 7,10A2,2 0 0,1 9,12A2,2 0 0,1 7,14M12.65,10C11.83,7.67 9.61,6 7, 6A6, 6 0 0, 0 1, 12A6, 6 0 0, 0 7, 18C9.61, 18 11.83, 16.33 12.65, 14H17V18H21V14H23V10H12.65Z" class="i pk" transform="translate(96.390234375, 48) scale(0.65)"></path><text x="13" y="86" class="tf">dept_name<tspan x="154.4" class="ty">varchar(20)</tspan></text></svg><svg width="122.04" height="100" x="663" y="384" id="h3858243705" class="t"><rect height="40" width="122.04" class="th"></rect><text x="13" y="25" class="tht">Salaries</text><rect height="60" width="122.04" class="t-bg"></rect><text x="13" y="61" class="tf pk">emp_no<tspan x="109.04" class="ty">int</tspan></text><path d="M7,14A2,2 0 0,1 5,12A2,2 0 0,1 7,10A2,2 0 0,1 9,12A2,2 0 0,1 7,14M12.65,10C11.83,7.67 9.61,6 7, 6A6, 6 0 0, 0 1, 12A6, 6 0 0, 0 7, 18C9.61, 18 11.83, 16.33 12.65, 14H17V18H21V14H23V10H12.65Z" class="i pk" transform="translate(76.366171875, 48) scale(0.65)"></path><text x="13" y="86" class="tf">salary<tspan x="109.04" class="ty">money</tspan></text></svg><svg width="163.38" height="225" x="387" y="278" id="h3299212598" class="t"><rect height="40" width="163.38" class="th"></rect><text x="13" y="25" class="tht">Employees</text><rect height="185" width="163.38" class="t-bg"></rect><text x="13" y="61" class="tf pk">emp_no<tspan x="150.38" class="ty">int</tspan></text><path d="M7,14A2,2 0 0,1 5,12A2,2 0 0,1 7,10A2,2 0 0,1 9,12A2,2 0 0,1 7,14M12.65,10C11.83,7.67 9.61,6 7, 6A6, 6 0 0, 0 1, 12A6, 6 0 0, 0 7, 18C9.61, 18 11.83, 16.33 12.65, 14H17V18H21V14H23V10H12.65Z" class="i pk" transform="translate(117.706171875, 48) scale(0.65)"></path><text x="13" y="86" class="tf fk">emp_title_id<tspan x="150.38" class="ty">char(5)</tspan></text><text x="13" y="111" class="tf">birth_date<tspan x="150.38" class="ty">date</tspan></text><text x="13" y="136" class="tf">first_name<tspan x="150.38" class="ty">varchar(50)</tspan></text><text x="13" y="161" class="tf">last_name<tspan x="150.38" class="ty">varchar(50)</tspan></text><text x="13" y="186" class="tf">sex<tspan x="150.38" class="ty">char(1)</tspan></text><text x="13" y="211" class="tf">hire_date<tspan x="150.38" class="ty">date</tspan></text></svg><svg width="147.39" height="100" x="190" y="129" id="h1676682957" class="t"><rect height="40" width="147.39" class="th"></rect><text x="13" y="25" class="tht">dept_manager</text><rect height="60" width="147.39" class="t-bg"></rect><text x="13" y="61" class="tf pk">dept_no<tspan x="134.39" class="ty">char(4)</tspan></text><path d="M7,14A2,2 0 0,1 5,12A2,2 0 0,1 7,10A2,2 0 0,1 9,12A2,2 0 0,1 7,14M12.65,10C11.83,7.67 9.61,6 7, 6A6, 6 0 0, 0 1, 12A6, 6 0 0, 0 7, 18C9.61, 18 11.83, 16.33 12.65, 14H17V18H21V14H23V10H12.65Z" class="i pk" transform="translate(76.38023437499999, 48) scale(0.65)"></path><text x="13" y="86" class="tf pk">emp_no<tspan x="134.39" class="ty">int</tspan></text><path d="M7,14A2,2 0 0,1 5,12A2,2 0 0,1 7,10A2,2 0 0,1 9,12A2,2 0 0,1 7,14M12.65,10C11.83,7.67 9.61,6 7, 6A6, 6 0 0, 0 1, 12A6, 6 0 0, 0 7, 18C9.61, 18 11.83, 16.33 12.65, 14H17V18H21V14H23V10H12.65Z" class="i pk" transform="translate(101.71617187499999, 73) scale(0.65)"></path></svg><svg width="147.39" height="100" x="548" y="132" id="h1090417462" class="t"><rect height="40" width="147.39" class="th"></rect><text x="13" y="25" class="tht">dept_emp</text><rect height="60" width="147.39" class="t-bg"></rect><text x="13" y="61" class="tf pk">emp_no<tspan x="134.39" class="ty">int</tspan></text><path d="M7,14A2,2 0 0,1 5,12A2,2 0 0,1 7,10A2,2 0 0,1 9,12A2,2 0 0,1 7,14M12.65,10C11.83,7.67 9.61,6 7, 6A6, 6 0 0, 0 1, 12A6, 6 0 0, 0 7, 18C9.61, 18 11.83, 16.33 12.65, 14H17V18H21V14H23V10H12.65Z" class="i pk" transform="translate(101.71617187499999, 48) scale(0.65)"></path><text x="13" y="86" class="tf pk">dept_no<tspan x="134.39" class="ty">char(4)</tspan></text><path d="M7,14A2,2 0 0,1 5,12A2,2 0 0,1 7,10A2,2 0 0,1 9,12A2,2 0 0,1 7,14M12.65,10C11.83,7.67 9.61,6 7, 6A6, 6 0 0, 0 1, 12A6, 6 0 0, 0 7, 18C9.61, 18 11.83, 16.33 12.65, 14H17V18H21V14H23V10H12.65Z" class="i pk" transform="translate(76.38023437499999, 73) scale(0.65)"></path></svg></g></g><text class="qdbd-link" x="10" y="20">www.quickdatabasediagrams.com</text></svg>